<?xml version="1.0" encoding="UTF-8"?>
<svg id="Layer_2" xmlns="http://www.w3.org/2000/svg" viewBox="0 0 590.59 138.66">
  <defs>
    <style>
      .cls-1 {
        fill: #f5de00;
      }

      .cls-2 {
        fill: #00cc6f;
      }

      .cls-3 {
        fill: #04c5fe;
      }
    </style>
  </defs>
  <g id="Layer_1-2" data-name="Layer_1">
    <g>
      <g>
        <path d="M192.84,127.17V10.33h17.36v116.84h-17.36Z"/>
        <path d="M258.6,127.17c-5.67,0-10.1-1.53-13.27-4.59-3.17-3.06-4.76-7.15-4.76-12.27v-51.74h-13.35v-15.36h13.35v-24.37h16.36v24.37h19.2v15.36h-19.2v48.24c0,1.89.42,3.25,1.25,4.09.83.83,2.2,1.25,4.09,1.25h13.85v15.02h-17.53Z"/>
        <path d="M317.69,128.84c-5.9,0-11.1-1.14-15.61-3.42-4.51-2.28-8.01-5.37-10.52-9.26-2.5-3.89-3.76-8.35-3.76-13.35,0-5.45,1.25-10.18,3.76-14.19,2.5-4.01,6.26-7.15,11.27-9.43,5.01-2.28,11.29-3.42,18.86-3.42h21.37v-2.17c0-5.45-1.59-9.79-4.76-13.02-3.17-3.23-7.49-4.84-12.94-4.84-3.56,0-6.68.56-9.35,1.67-2.67,1.11-4.76,2.62-6.26,4.51-1.5,1.89-2.42,3.9-2.75,6.01h-16.19c.33-4.56,1.89-8.87,4.67-12.94,2.78-4.06,6.73-7.32,11.85-9.76,5.12-2.45,11.13-3.67,18.03-3.67s12.94,1.31,18.11,3.92c5.17,2.62,9.15,6.34,11.93,11.18,2.78,4.84,4.17,10.49,4.17,16.94v53.58h-14.19l-1.67-9.18h-.83c-1.89,2.78-5.09,5.29-9.6,7.51-4.51,2.22-9.71,3.34-15.61,3.34ZM319.36,114.82c4.9,0,9.15-.94,12.77-2.84,3.61-1.89,6.34-4.56,8.18-8.01,1.84-3.45,2.75-7.45,2.75-12.02v-3h-20.2c-6.34,0-11.02,1.23-14.02,3.67-3,2.45-4.51,5.62-4.51,9.51s1.31,6.84,3.92,9.18c2.61,2.34,6.31,3.51,11.1,3.51Z"/>
        <path d="M382.45,127.17V10.33h16.36v116.84h-16.36Z"/>
        <path d="M446.38,127.17c-5.68,0-10.1-1.53-13.27-4.59-3.17-3.06-4.76-7.15-4.76-12.27v-51.74h-13.35v-15.36h13.35v-24.37h16.36v24.37h19.2v15.36h-19.2v48.24c0,1.89.42,3.25,1.25,4.09.83.83,2.2,1.25,4.09,1.25h13.85v15.02h-17.53Z"/>
        <path d="M515.98,128.84c-7.79,0-14.83-1.86-21.11-5.59-6.29-3.73-11.27-8.9-14.94-15.52-3.67-6.62-5.51-14.16-5.51-22.62s1.84-15.83,5.51-22.45c3.67-6.62,8.65-11.79,14.94-15.52,6.29-3.73,13.32-5.59,21.11-5.59,7.34,0,14.08,1.78,20.2,5.34,6.12,3.56,10.93,8.46,14.44,14.69,3.51,6.23,5.26,13.24,5.26,21.03,0,2-.08,3.81-.25,5.42-.17,1.61-.36,2.75-.58,3.42h-64.26c.56,4.56,2,8.6,4.34,12.1,2.34,3.51,5.31,6.2,8.93,8.1,3.61,1.89,7.59,2.84,11.93,2.84,4.67,0,8.79-1.03,12.35-3.09,3.56-2.06,6.29-4.81,8.18-8.26h16.86c-1.67,4.9-4.2,9.26-7.59,13.1-3.4,3.84-7.59,6.9-12.6,9.18-5.01,2.28-10.74,3.42-17.19,3.42ZM539.52,78.76c-.22-4.34-1.39-8.26-3.51-11.77-2.12-3.51-4.92-6.26-8.43-8.26-3.51-2-7.37-3-11.6-3-4.45,0-8.49,1-12.1,3-3.62,2-6.54,4.73-8.76,8.18-2.23,3.45-3.67,7.4-4.34,11.85h48.74Z"/>
        <path d="M574.24,127.17V10.33h16.36v116.84h-16.36Z"/>
      </g>
      <path class="cls-3" d="M107.72,55.48c-6-1.78-11.21-3.08-16.2-4.95-1.48-.56-2.75-2.57-3.43-4.2-3.04-7.26-5.23-14.93-8.86-21.86-3.78-7.22-7.91-7.09-12.03.05-13.36,23.18-14.14,46.49.52,70.46-4.33,3.27-8.76,6.63-13.49,10.21-12.08-18.14-17.54-37.08-14.6-58.06,2.03-14.46,7.28-27.61,16.99-38.72,9.73-11.13,23.52-11.22,33.21-.09,11.62,13.34,16.71,29.2,17.89,47.17Z"/>
      <path class="cls-2" d="M85.38,83.22c5.04,2.65,9.61,5.06,15.5,8.17-4.95,7.28-8.83,14.61-14.21,20.59-18.24,20.25-41.18,29.28-68.39,25.82-13.79-1.75-21.05-13.7-17.3-26.99,4.47-15.83,16.33-31.93,30.09-40.5,1.6,6.03,3.31,11.88,4.59,17.83.22,1.03-1.31,2.49-2.15,3.67-4.27,6.01-9.17,11.68-12.74,18.08-4.36,7.82-2.19,11.08,6.71,10.59,24.63-1.34,43.78-12.03,56.07-33.92.49-.86.95-1.74,1.82-3.35Z"/>
      <path class="cls-1" d="M66.93,72.88c-3.39-19.49-3.55-17.47,13.66-16.22,28.38,2.05,57.13,26.37,64.66,53.72,3.86,14.02-3.4,25.59-17.77,27.58-16.14,2.24-31.41-.87-46.2-8.7,4.26-4.34,8.06-8.53,12.26-12.28.97-.87,3.34-.47,5-.21,7.44,1.17,14.82,3.07,22.3,3.59,6.53.45,8.38-2.54,5.55-8.58-10.13-21.61-26.86-34.92-50.62-38.83-2.76-.45-5.66-.06-8.84-.06Z"/>
    </g>
  </g>
</svg>